<?xml version="1.0" standalone="no"?>
<!DOCTYPE svg PUBLIC "-//W3C//DTD SVG 20010904//EN"
 "http://www.w3.org/TR/2001/REC-SVG-20010904/DTD/svg10.dtd">
<svg version="1.0" xmlns="http://www.w3.org/2000/svg"
 width="700.000000pt" height="700.000000pt" viewBox="0 0 700.000000 700.000000"
 preserveAspectRatio="xMidYMid meet">
<metadata>
Created by potrace 1.11, written by Peter Selinger 2001-2013
</metadata>
<g transform="translate(0.000000,700.000000) scale(0.100000,-0.100000)"
fill="#000000" stroke="none">
<path d="M3171 6990 c-787 -82 -1492 -396 -2049 -914 -650 -604 -1031 -1384
-1113 -2276 -23 -252 -2 -664 47 -930 261 -1420 1402 -2551 2824 -2799 239
-41 299 -46 615 -45 323 0 423 8 659 55 1403 277 2488 1362 2765 2765 47 236
55 336 55 659 1 316 -4 376 -45 615 -164 937 -717 1777 -1519 2307 -442 292
-920 470 -1475 549 -129 18 -633 27 -764 14z m1552 -1251 c12 -6 45 -29 72
-50 35 -26 75 -44 130 -59 127 -34 176 -51 170 -60 -11 -18 -122 -52 -198 -60
-62 -7 -87 -15 -114 -36 -89 -68 -96 -220 -18 -374 13 -25 49 -83 81 -130 139
-206 164 -270 171 -425 9 -206 -46 -349 -227 -587 -107 -141 -120 -173 -120
-299 0 -178 -35 -274 -139 -379 -182 -182 -315 -216 -680 -171 -340 43 -488
43 -653 0 -46 -11 -150 -34 -233 -50 -251 -48 -305 -89 -418 -312 -55 -109
-57 -118 -98 -337 -22 -124 -47 -271 -54 -328 -7 -56 -19 -110 -26 -118 -7 -8
-33 -27 -58 -42 -25 -14 -93 -58 -151 -98 -92 -62 -153 -92 -236 -118 -20 -6
-20 -4 6 76 16 49 37 93 53 109 20 20 26 37 25 63 -2 47 19 69 92 96 64 24
102 57 124 111 29 68 104 384 116 484 8 64 10 151 5 240 -4 84 -3 150 3 165 8
20 26 30 98 54 120 39 213 81 246 113 16 15 28 30 28 33 0 4 -28 1 -62 -6 -35
-7 -101 -17 -148 -23 -55 -6 -116 -23 -172 -45 -83 -34 -137 -43 -185 -30 -19
5 -16 11 36 63 61 63 108 147 112 201 4 59 0 95 -15 116 -14 19 -15 19 -38 -2
-33 -29 -66 -48 -123 -68 -27 -10 -100 -40 -161 -67 -62 -27 -119 -49 -127
-49 -10 0 -16 16 -21 50 -4 32 -16 60 -33 81 l-27 32 -22 -27 c-23 -26 -44
-84 -44 -121 0 -11 6 -48 14 -82 7 -35 9 -63 4 -63 -19 0 -100 86 -128 135
-74 129 -90 251 -45 341 38 74 183 263 229 297 120 88 331 154 566 177 63 6
131 16 150 21 19 5 107 47 195 95 249 134 409 199 555 225 84 14 569 3 696
-16 144 -23 298 -89 474 -205 113 -74 153 -87 206 -70 63 21 101 57 136 128
32 64 33 71 33 187 0 165 -16 209 -161 451 -126 211 -164 334 -144 472 19 138
68 232 145 278 44 26 75 30 108 13z m-795 -2746 l84 -6 -6 -26 c-3 -14 -9 -89
-12 -166 -5 -134 -5 -142 18 -183 40 -72 120 -143 250 -221 68 -41 161 -102
208 -136 47 -34 126 -88 175 -120 64 -42 133 -102 235 -205 l145 -147 85 -22
c139 -36 149 -41 165 -71 31 -61 29 -62 -119 -58 -118 3 -138 6 -163 24 -25
19 -31 20 -48 8 -26 -20 -51 -17 -96 8 -32 18 -43 33 -64 87 -22 59 -32 71
-87 111 -35 25 -94 75 -133 111 -114 108 -199 167 -460 325 -150 90 -272 171
-308 203 -66 62 -67 66 -27 176 28 76 25 169 -8 236 -23 47 -26 66 -16 92 5
13 11 13 52 0 26 -8 85 -17 130 -20z"/>
</g>
</svg>
